# xmcd CD database file
#
# Track frame offsets:
#	180
#	27872
#	52666
#	65899
#	94443
#	128175
#	144566
#	169353
#	191366
#	207129
#	232521
#	254824
#	279557
#
# Disc length: 4334 seconds
#
# Revision: 0
# Processed by: cddbd v1.5PL3 Copyright (c) Steve Scherf et al.
# Submitted via: CDex 1.51
#
DISCID=bd10ec0d
DTITLE=fania all stars - best of volume 1
DYEAR=1900
DGENRE=Salsa
TTITLE0=coro myare
TTITLE1=bamboleo
TTITLE2=mama guela
TTITLE3=jalin pachanga
TTITLE4=el raton
TTITLE5=mi gente
TTITLE6=vente con migo
TTITLE7=dime que te passa
TTITLE8=mi so den boso
TTITLE9=nina
TTITLE10=ijobi bjoba
TTITLE11=los bravos
TTITLE12=congo congo
EXTD=
EXTT0=
EXTT1=
EXTT2=
EXTT3=
EXTT4=
EXTT5=
EXTT6=
EXTT7=
EXTT8=
EXTT9=
EXTT10=
EXTT11=
EXTT12=
PLAYORDER=
